<?xml version="1.0" encoding="utf-8"?>
<!-- Generator: Adobe Illustrator 17.0.2, SVG Export Plug-In . SVG Version: 6.00 Build 0)  -->
<!DOCTYPE svg PUBLIC "-//W3C//DTD SVG 1.1//EN" "http://www.w3.org/Graphics/SVG/1.1/DTD/svg11.dtd">
<svg version="1.1" id="Layer_1" xmlns="http://www.w3.org/2000/svg" xmlns:xlink="http://www.w3.org/1999/xlink" x="0px" y="0px"
	 width="120.399px" height="126.133px" viewBox="12.101 373.715 120.399 126.133"
	 enable-background="new 12.101 373.715 120.399 126.133" xml:space="preserve">
<g>
	<path d="M25.06,395.311c0,0.605,0,1.211,0,1.878c0.637,0,1.213,0,1.911,0c0,0.317,0,0.573,0,0.828c0,2.318-0.008,4.637,0.003,6.955
		c0.007,1.665,0.989,3.029,2.568,3.317c1.161,0.212,2.364,0.155,3.522-0.43c-0.142-0.549-0.284-1.095-0.407-1.57
		c-0.65,0.057-1.248,0.139-1.846,0.153c-0.768,0.018-1.354-0.466-1.478-1.226c-0.093-0.57-0.153-1.152-0.158-1.729
		c-0.018-2.049-0.007-4.097-0.007-6.266c0.822,0,1.615,0.001,2.409,0c1.107-0.001,1.106-0.001,1.105-1.074c0-0.241,0-0.482,0-0.812
		c-1.173,0-2.304,0-3.514,0c0-1.105,0.018-2.123-0.014-3.139c-0.007-0.22-0.194-0.435-0.428-0.699
		c12.483-11.863,27.428-17.97,44.734-17.777c14.122,0.157,26.843,4.756,37.988,13.477c10.779,8.434,16.762,18.766,19.718,26.566
		c-0.614-0.062-1.204-0.118-1.793-0.181c-0.263-0.028-0.525-0.101-0.787-0.102c-7.858-0.006-15.716-0.005-23.573-0.003
		c-0.214,0-0.428,0.018-0.684,0.029c0,3.492,0,6.946,0,10.49c1.516,0,3.037,0,4.643,0c0,0.373,0,0.657,0,0.942
		c0,11.445,0,22.89,0,34.335c0,2.729,1.712,4.428,4.459,4.428c5.052,0,10.103,0,15.154,0c0.265,0,0.531,0,0.919,0
		c-3.745,7.797-8.755,14.517-15.161,20.187c-0.337-0.149-0.628-0.349-0.944-0.404c-1.12-0.193-2.174,0.839-1.905,1.951
		c0.151,0.624-0.027,0.875-0.488,1.235c-3.117,2.428-6.451,4.51-9.966,6.296c-5.142,2.613-10.529,4.562-16.217,5.579
		c-2.461,0.44-4.95,0.756-7.438,1.013c-1.902,0.196-3.829,0.346-5.735,0.269c-2.674-0.107-5.344-0.394-8.005-0.694
		c-4.129-0.466-8.117-1.545-12.036-2.907c-5.536-1.925-10.687-4.606-15.478-7.964c-3.752-2.63-7.163-5.674-10.242-9.064
		c-3.921-4.316-7.202-9.086-9.802-14.314c-0.141-0.283-0.272-0.57-0.399-0.859c-0.037-0.084-0.047-0.181-0.08-0.313
		c2.836,0,5.637,0,8.556,0c2.347-9.563,5.414-18.937,7.308-28.1c0.574,4.47,2.253,9.204,3.495,14.043
		c1.154,4.495,2.386,8.969,3.586,13.452c0.049,0.183,0.133,0.357,0.212,0.565c4.815,0,9.641,0,14.521,0
		c0.501-1.972,1.009-3.94,1.501-5.912c2.02-8.092,4.031-16.187,6.054-24.278c0.643-2.573,1.308-5.141,1.976-7.708
		c0.363-1.394,0.552-1.655,1.931-1.72c1.967-0.093,3.942-0.024,6.004-0.024c0,0.335,0,0.618,0,0.903c0,11.445,0,22.89,0,34.335
		c0,2.733,1.709,4.434,4.453,4.434c8.346,0,16.692,0.001,25.038,0c2.597,0,4.333-1.737,4.334-4.333c0.001-3.246,0-6.491,0-9.737
		c0-0.263,0-0.526,0-0.826c-3.771,0-7.469,0-11.275,0c0,0.845,0.002,1.689-0.001,2.533c-0.004,1.244-0.491,1.791-1.746,1.81
		c-2.147,0.033-4.295,0.03-6.442,0.001c-1.122-0.015-1.718-0.505-1.745-1.604c-0.063-2.604-0.02-5.211-0.02-7.879
		c4.783,0,9.507,0,14.288,0c0-3.535,0-7.006,0-10.541c-4.728,0-9.451,0-14.233,0c0-3.046,0-6.03,0-9.106c1.09,0,2.179,0,3.269,0
		c1,0,2.001-0.009,3.002,0.002c1.466,0.016,2.009,0.566,2.017,2.02c0.004,0.752,0.001,1.504,0.001,2.305c3.756,0,7.452,0,11.236,0
		c0.013-0.258,0.037-0.514,0.038-0.771c0.003-3.173,0.045-6.346-0.011-9.517c-0.049-2.795-1.386-4.576-4.594-4.579
		c-13.983-0.01-27.966-0.025-41.949,0.013c-2.885,0.008-4.747,1.431-5.308,4.402c-0.807,4.273-1.798,8.512-2.698,12.768
		c-0.906,4.28-1.819,8.559-2.68,12.848c-0.279,1.39-0.404,2.812-0.602,4.219c-0.012,0.085-0.054,0.166-0.152,0.452
		c-0.161-0.909-0.255-1.624-0.418-2.322c-0.735-3.154-1.46-6.311-2.242-9.454c-1.728-6.946-3.488-13.885-5.237-20.826
		c-0.071-0.28-0.166-0.553-0.242-0.832c-0.347-1.27-0.346-1.27-1.68-1.27c-2.684,0-5.369,0.013-8.053-0.011
		c-0.52-0.005-0.742,0.122-0.879,0.67c-2.254,8.977-4.558,17.941-6.8,26.922c-0.563,2.256-0.947,4.556-1.417,6.835
		c-0.006,0.031-0.064,0.051-0.164,0.124c-0.082-0.614-0.134-1.197-0.24-1.769c-0.407-2.199-0.806-4.4-1.254-6.591
		c-0.785-3.836-1.601-7.666-2.408-11.498c-0.599-2.847-1.219-5.69-1.791-8.542c-0.085-0.424-0.041-0.918,0.089-1.334
		c1.387-4.416,3.198-8.645,5.483-12.68c2.045-3.611,4.478-6.935,7.118-10.12c0.058-0.07,0.156-0.107,0.235-0.159
		C25.07,395.323,25.06,395.311,25.06,395.311z M45.858,408.024c0-3.097,0.072-6.121-0.033-9.139
		c-0.048-1.384-0.478-2.801-1.884-3.46c-1.677-0.786-3.346-0.549-4.885,0.482c-0.403,0.27-0.773,0.587-1.287,0.981
		c0-2.629,0-5.079,0-7.533c-0.744,0-1.416,0-2.112,0c0,6.242,0,12.444,0,18.642c0.739,0,1.429,0,2.148,0
		c0-2.864-0.005-5.667,0.008-8.471c0.001-0.272,0.029-0.652,0.2-0.796c0.681-0.569,1.361-1.205,2.156-1.558
		c1.726-0.767,3.3,0.23,3.342,2.016c0.062,2.625,0.102,5.25,0.149,7.876c0.006,0.309,0.001,0.618,0.001,0.96
		C44.42,408.024,45.093,408.024,45.858,408.024z M59.771,402.222c0-0.634-0.009-1.164,0.001-1.695
		c0.059-2.975-1.822-5.801-5.442-5.518c-1.605,0.125-2.893,0.79-3.873,1.996c-1.541,1.895-1.809,4.109-1.379,6.443
		c0.982,5.317,6.933,6.096,10.248,3.532c-0.266-0.471-0.534-0.947-0.802-1.422c-4.08,2.411-7.254,0.053-7.339-3.335
		C54.007,402.222,56.828,402.222,59.771,402.222z M86.348,485.017c0.127,0.148,0.214,0.306,0.347,0.397
		c2.073,1.43,4.345,1.89,6.744,1.103c2.859-0.938,3.331-4.434,1.374-5.989c-0.413-0.328-0.888-0.598-1.371-0.811
		c-1.102-0.486-2.245-0.883-3.337-1.39c-0.624-0.29-1.036-0.807-0.901-1.581c0.122-0.697,0.58-1.109,1.208-1.32
		c1.331-0.446,2.507,0.008,3.651,0.665c0.168,0.096,0.542,0.102,0.647-0.011c0.316-0.341,0.546-0.761,0.817-1.163
		c-1.807-1.413-3.795-1.781-5.88-1.207c-2.529,0.698-3.294,3.184-2.212,5.023c0.509,0.865,1.374,1.267,2.238,1.654
		c1.12,0.501,2.3,0.894,3.361,1.499c1.091,0.622,0.952,2.196-0.146,2.812c-0.808,0.453-1.689,0.548-2.528,0.284
		c-1.021-0.322-1.986-0.819-3.032-1.265C87.055,484.079,86.71,484.537,86.348,485.017z M83.587,486.506c0-4.259,0-8.456,0-12.639
		c-0.742,0-1.431,0-2.106,0c0,4.243,0,8.422,0,12.639C82.191,486.506,82.862,486.506,83.587,486.506z M99.945,486.836
		c1.025,0.002,1.552-0.552,1.558-1.641c0.006-1.004-0.626-1.72-1.526-1.727c-0.981-0.008-1.709,0.748-1.696,1.761
		C98.293,486.163,98.988,486.834,99.945,486.836z M108.092,485.133c-0.002-0.947-0.647-1.654-1.516-1.664
		c-0.984-0.012-1.702,0.737-1.709,1.752c-0.005,0.789,0.749,1.729,1.731,1.636C107.578,486.762,108.095,486.248,108.092,485.133z
		 M82.517,471.022c0.953,0.002,1.568-0.554,1.56-1.41c-0.008-0.833-0.603-1.369-1.521-1.373c-1.031-0.004-1.55,0.453-1.553,1.365
		C81,470.53,81.524,471.02,82.517,471.022z"/>
	<path d="M121.565,442.632c2.593,0.137,5.095,0.147,7.565,0.438c1.921,0.226,2.874,1.73,3.222,3.485
		c0.336,1.692,0.129,3.363-0.96,4.824c-0.709,0.951-1.682,1.51-2.812,1.606c-1.714,0.146-3.442,0.15-5.165,0.164
		c-1.199,0.01-1.824-0.533-1.839-1.659C121.54,448.616,121.565,445.742,121.565,442.632z"/>
	<path d="M121.598,432.802c0-2.966,0-5.833,0-8.68c1.704,0,3.373-0.013,5.042,0.009c0.428,0.005,0.859,0.096,1.282,0.182
		c1.653,0.338,2.661,2.046,2.751,3.409c0.107,1.615-0.166,3.057-1.396,4.129c-0.534,0.465-1.303,0.864-1.99,0.909
		C125.421,432.883,123.542,432.802,121.598,432.802z"/>
	<path d="M25.07,395.323c0.623-0.725,1.247-1.45,1.883-2.189c0.096,0.106,0.148,0.136,0.15,0.169
		c0.093,2.041,0.092,2.041-2.044,2.008C25.06,395.311,25.07,395.323,25.07,395.323z"/>
	<path d="M51.166,400.704c0.09-2.113,1.606-3.818,3.43-3.921c1.885-0.106,2.804,1.015,3.194,3.921
		C55.597,400.704,53.409,400.704,51.166,400.704z"/>
	<animate attributename="fill" dur="20s" repeatcount="indefinite" values="#cc3333; #308e36; #33cccc; #cc3333"></animate>
</g>
</svg>
